<?xml version="1.0" standalone="no"?><!DOCTYPE svg PUBLIC "-//W3C//DTD SVG 1.1//EN" "http://www.w3.org/Graphics/SVG/1.1/DTD/svg11.dtd"><svg t="1645075864846" class="icon" viewBox="0 0 1024 1024" version="1.1" xmlns="http://www.w3.org/2000/svg" p-id="2793" xmlns:xlink="http://www.w3.org/1999/xlink" width="200" height="200"><defs><style type="text/css"></style></defs><path d="M1001.58 421.692l-22.248-59.044A50.956 50.956 0 0 0 912 341.82l-48 19.4V128a112 112 0 0 0-112-112h-127.78a112 112 0 0 0-112 112v800H880V544l104.044-54.35a50.956 50.956 0 0 0 17.536-67.958z" fill="#FE9E4A" p-id="2794"></path><path d="M720 784h32v80h-32zM800 784h32v80h-32zM640 192h32v80h-32zM720 192h32v80h-32z" fill="#7A3909" p-id="2795"></path><path d="M112 256m-48 0a48 48 0 1 0 96 0 48 48 0 1 0-96 0Z" fill="#FE9E4A" p-id="2796"></path><path d="M392.728 290.018l50.018 27.354-50.018 27.356-27.356 50.018-27.354-50.018L288 317.372l50.018-27.354L365.372 240z" fill="#90E3F5" p-id="2797"></path><path d="M64 352h32v32H64z" fill="#087182" p-id="2798"></path><path d="M720 680h64v-64h-64v-80a112 112 0 0 0-112-112h-95.78v504h168.624z" fill="#232626" opacity=".2" p-id="2799"></path><path d="M672 640v-80a112 112 0 0 0-112-112H216v192z" fill="#A95A18" p-id="2800"></path><path d="M32 704l32 304h275.764L368 704z" fill="#90E3F5" p-id="2801"></path><path d="M368 704l-28.236 304H624l48-304z" fill="#0F8CA8" p-id="2802"></path><path d="M16 640h720v64H16z" fill="#087182" p-id="2803"></path><path d="M509.934 813.934l27.356-50.018 27.354 50.018 50.018 27.356-50.018 27.354-27.354 50.018-27.356-50.018-50.018-27.354z" fill="#FE9E4A" p-id="2804"></path><path d="M240 768h32v32h-32z" fill="#FFFFFF" p-id="2805"></path><path d="M160 448h80a112 112 0 0 1 112 112v80H48v-80a112 112 0 0 1 112-112z" fill="#FE9E4A" p-id="2806"></path><path d="M128 560h32v32H128zM224 560h32v32h-32zM176 512h32v32H176z" fill="#A95A18" p-id="2807"></path></svg>